<?xml version="1.0" standalone="no"?>
<!DOCTYPE svg PUBLIC "-//W3C//DTD SVG 20010904//EN"
 "http://www.w3.org/TR/2001/REC-SVG-20010904/DTD/svg10.dtd">
<svg version="1.0" xmlns="http://www.w3.org/2000/svg"
 width="1632.000000pt" height="589.000000pt" viewBox="0 0 1632.000000 589.000000"
 preserveAspectRatio="xMidYMid meet">

<g transform="translate(0.000000,589.000000) scale(0.100000,-0.100000)"
fill="#000000" stroke="none">
<path d="M8075 5853 c-4 -18 -18 -39 -31 -48 -27 -18 -33 -68 -10 -94 11 -14
11 -24 -1 -66 -14 -49 -19 -53 -241 -225 l-226 -175 47 -3 47 -3 0 -168 0
-169 -855 -533 -856 -534 231 -3 230 -2 -2 -256 -3 -256 -995 -529 -995 -528
-3 -51 -3 -50 3675 0 3676 0 0 48 0 48 -997 530 -998 529 -3 258 -2 257 229 2
229 3 -859 535 -859 535 0 167 0 167 51 3 50 3 -225 174 c-214 165 -226 176
-241 222 -15 44 -15 51 -1 71 22 31 20 64 -6 90 -13 12 -28 36 -35 53 l-11 30
-7 -32z m-85 -778 l0 -175 -105 0 -105 0 0 175 0 175 105 0 105 0 0 -175z
m395 0 l0 -170 -105 0 -105 0 -3 160 c-1 87 0 165 3 172 3 11 29 13 107 11
l103 -3 0 -170z m-1295 -1485 l0 -230 -230 0 -230 0 0 230 0 230 230 0 230 0
0 -230z m610 0 l0 -230 -230 0 -230 0 0 230 0 230 230 0 230 0 0 -230z m610 0
l0 -230 -230 0 -230 0 0 230 0 230 230 0 230 0 0 -230z m618 3 l-3 -228 -230
0 -230 0 -3 228 -2 227 235 0 235 0 -2 -227z m610 0 l-3 -228 -230 0 -230 0
-3 228 -2 227 235 0 235 0 -2 -227z"/>
<path d="M5045 1960 l29 -30 -49 -50 c-27 -27 -46 -53 -42 -57 4 -4 29 15 56
41 27 27 53 47 59 45 16 -6 132 -117 132 -126 0 -5 -30 -36 -68 -70 l-67 -60
-55 49 c-30 27 -56 44 -58 38 -2 -6 19 -31 47 -56 l51 -46 -50 -45 c-27 -25
-50 -52 -50 -60 0 -10 21 4 55 36 l55 52 28 -20 c15 -10 47 -40 72 -66 l45
-47 -70 -63 -70 -63 -57 50 c-34 29 -58 44 -58 36 0 -8 23 -34 51 -58 l52 -43
-52 -45 c-28 -24 -51 -51 -51 -59 0 -9 22 5 57 36 l56 50 36 -29 c20 -15 51
-44 70 -64 l35 -36 -25 -26 c-13 -14 -45 -43 -70 -65 l-46 -38 -56 50 c-35 31
-57 45 -57 36 0 -8 23 -35 51 -59 l52 -45 -52 -43 c-28 -24 -51 -50 -51 -58 0
-8 24 7 58 36 l58 51 70 -64 69 -63 -45 -47 c-25 -26 -57 -56 -72 -66 l-28
-20 -55 52 c-34 32 -55 46 -55 36 0 -8 23 -35 50 -60 l50 -45 -51 -46 c-28
-25 -49 -50 -47 -56 2 -6 28 11 58 38 l55 49 72 -64 72 -65 -66 -61 c-36 -34
-70 -64 -75 -66 -6 -2 -34 21 -64 50 -30 29 -54 47 -54 39 0 -8 21 -36 47 -62
l47 -48 -49 -50 c-63 -64 -52 -77 14 -15 28 26 54 45 59 43 5 -1 33 -25 62
-51 l53 -48 -49 -50 c-73 -75 -73 -75 -132 -23 -33 29 -52 40 -52 30 0 -8 20
-31 46 -52 l45 -37 -48 -49 c-56 -57 -41 -65 20 -9 l42 39 44 -39 c24 -21 51
-39 60 -39 9 0 -6 19 -37 46 l-52 45 61 57 c34 31 64 58 68 59 3 1 38 -27 76
-63 l70 -64 -45 -40 c-53 -47 -33 -55 23 -9 37 30 39 31 57 14 16 -15 20 -15
20 -4 0 8 -5 20 -12 27 -9 9 -9 15 0 24 7 7 12 19 12 27 0 11 -4 10 -20 -4
-23 -20 -15 -25 -123 74 l-37 35 42 44 c67 69 94 85 118 72 22 -12 27 -1 8 18
-9 9 -9 15 0 24 7 7 12 19 12 27 0 11 -4 11 -19 -4 -19 -17 -22 -15 -81 36
l-62 54 73 67 c40 37 76 65 81 62 4 -3 8 6 8 19 0 15 -5 24 -13 23 -8 0 -43
27 -80 61 l-66 62 70 65 c39 36 75 63 80 60 5 -3 9 7 9 21 0 14 -4 24 -10 20
-5 -3 -40 24 -79 60 l-69 66 70 66 70 65 29 -28 c37 -36 51 -23 15 15 l-27 29
71 63 c39 35 78 63 87 61 10 -2 14 2 10 11 -3 9 16 33 53 65 46 40 62 50 81
45 21 -6 22 -5 11 10 -12 14 -5 24 55 80 l68 65 42 -34 c58 -47 78 -42 23 6
l-44 39 34 37 c19 19 52 49 72 66 l38 29 70 -62 70 -63 -37 -38 c-24 -24 -32
-38 -22 -38 8 0 28 13 44 30 l28 29 36 -29 c19 -17 42 -30 51 -30 9 0 -2 14
-25 34 l-40 35 45 46 c25 26 57 56 72 66 l28 20 70 -63 70 -63 -49 -47 c-32
-31 -44 -48 -33 -48 9 0 34 18 57 39 l40 40 60 -54 c59 -53 60 -53 41 -74 -24
-27 -13 -40 14 -16 19 17 21 16 67 -23 26 -22 59 -52 72 -66 23 -25 23 -27 7
-45 -10 -10 -13 -22 -8 -25 5 -3 18 4 28 15 18 20 18 19 76 -38 l58 -57 -37
-38 c-49 -50 -36 -60 16 -13 l41 37 67 -62 c38 -34 68 -65 68 -68 0 -4 -31
-36 -68 -70 l-69 -64 -24 23 c-23 21 -24 22 -18 4 4 -11 11 -25 16 -32 5 -7 5
-14 -2 -18 -5 -3 -10 -13 -10 -22 0 -14 3 -14 20 2 20 18 22 17 88 -46 37 -35
67 -67 67 -71 0 -3 -31 -34 -68 -68 -66 -61 -68 -62 -87 -45 -16 15 -20 15
-20 4 0 -8 5 -20 11 -26 8 -8 8 -13 0 -17 -6 -4 -11 -14 -11 -23 0 -14 2 -14
19 1 19 17 22 15 91 -51 l71 -68 -71 -64 c-69 -61 -72 -63 -91 -46 -15 15 -19
15 -19 4 0 -8 6 -21 13 -28 10 -11 10 -14 0 -18 -7 -3 -13 -12 -13 -21 0 -12
3 -13 12 -4 20 20 33 14 102 -49 75 -69 75 -63 -6 -131 l-49 -41 -30 29 c-34
32 -41 13 -7 -23 l21 -23 -23 -25 c-30 -32 -18 -46 14 -16 28 26 43 21 90 -28
17 -17 37 -31 45 -31 10 1 -6 21 -38 52 l-55 50 60 54 c32 29 62 52 65 51 4
-1 37 -30 74 -65 l67 -63 -44 -39 c-24 -22 -37 -39 -29 -40 7 0 29 13 48 30
18 16 37 30 41 30 5 0 21 -13 37 -30 16 -16 36 -30 44 -30 9 0 1 15 -24 40
l-39 40 39 40 c50 51 37 66 -14 16 -46 -45 -50 -44 -130 37 l-53 55 68 65 69
65 45 -39 c25 -21 47 -34 49 -28 1 5 -14 25 -35 44 l-39 33 38 39 c53 55 46
76 -7 24 l-45 -44 -38 31 c-21 17 -54 46 -73 66 -29 31 -32 38 -20 49 8 8 40
37 70 65 l56 51 47 -40 c30 -26 47 -35 47 -26 0 8 -17 29 -37 45 l-38 31 38
38 c53 55 46 76 -8 23 l-44 -44 -68 60 c-36 33 -68 65 -70 70 -2 6 28 39 66
73 l70 62 46 -42 c29 -27 45 -36 45 -26 0 8 -16 29 -35 46 -19 17 -35 33 -35
37 0 4 17 22 39 40 21 19 41 43 44 54 4 15 -10 6 -50 -30 l-55 -50 -69 62
c-38 34 -68 66 -66 72 2 5 34 37 70 70 l68 60 52 -52 c29 -29 59 -52 67 -52 8
0 -12 27 -45 60 l-59 60 69 64 70 63 33 -28 c18 -16 37 -27 42 -24 5 3 -5 19
-23 35 l-32 29 55 56 c79 81 85 83 125 45 18 -17 35 -28 39 -22 3 5 -8 22 -24
37 -17 16 -30 32 -30 36 0 4 31 34 68 67 l68 61 67 -60 c36 -33 68 -55 71 -50
4 5 -23 35 -59 67 l-65 58 67 62 c38 35 73 63 78 63 6 0 40 -28 78 -63 l67
-62 -66 -59 c-37 -33 -62 -61 -56 -63 7 -2 40 21 74 51 l61 55 57 -49 c79 -69
99 -61 21 9 l-63 57 70 63 c39 34 74 62 78 62 8 0 127 -110 133 -123 1 -5 -25
-34 -59 -65 -35 -31 -58 -58 -51 -60 6 -2 39 21 72 52 l62 55 68 -61 c38 -33
69 -63 69 -66 0 -3 -10 -16 -22 -29 -25 -27 -5 -33 23 -7 17 15 21 14 56 -14
21 -17 53 -46 72 -66 29 -30 32 -38 21 -51 -18 -22 -4 -32 17 -13 17 15 23 11
87 -48 l69 -65 -37 -38 c-48 -49 -34 -63 15 -15 l38 37 70 -63 c39 -34 71 -65
71 -69 0 -3 -31 -34 -69 -68 -64 -58 -69 -61 -90 -47 -19 14 -21 13 -21 0 0
-9 5 -16 10 -16 6 0 8 -11 4 -28 -7 -24 -6 -26 9 -14 14 12 25 6 87 -49 38
-35 70 -66 70 -70 0 -3 -32 -34 -70 -69 -56 -49 -73 -60 -84 -51 -12 10 -14 5
-13 -24 1 -36 6 -42 22 -26 6 6 36 -15 79 -55 78 -73 79 -64 -16 -145 -45 -40
-61 -49 -72 -40 -11 9 -13 4 -13 -29 0 -32 2 -38 13 -29 18 15 24 12 94 -55
l61 -59 -33 -34 c-62 -65 -107 -96 -122 -84 -11 9 -13 3 -13 -29 0 -33 2 -38
14 -29 11 9 22 5 53 -20 56 -45 73 -38 20 9 -39 34 -43 41 -30 53 8 8 41 37
72 66 l57 53 60 -53 60 -54 -52 -53 c-30 -30 -45 -52 -36 -52 8 0 33 18 54 40
21 22 43 40 48 40 5 0 29 -18 54 -40 25 -22 53 -40 61 -40 9 0 -8 22 -39 49
l-54 49 54 56 c30 30 52 58 49 61 -3 3 -31 -17 -62 -45 l-56 -52 -27 20 c-16
11 -43 36 -61 54 l-32 34 64 62 c35 34 69 62 74 62 5 0 30 -18 56 -41 29 -26
46 -35 46 -26 0 9 -19 31 -42 51 l-43 35 44 45 c57 58 48 69 -13 15 l-46 -41
-70 62 c-39 35 -69 65 -68 69 2 3 33 35 70 69 l67 64 50 -47 c32 -30 51 -42
51 -33 0 9 -19 32 -41 53 l-41 37 43 44 c56 57 42 71 -15 15 l-44 -44 -71 64
c-39 35 -71 66 -71 69 0 3 32 34 71 69 l71 64 49 -49 c29 -28 49 -42 49 -33 0
8 -18 33 -40 54 l-40 39 45 46 c25 25 45 52 45 60 0 8 -25 -10 -54 -39 l-55
-54 -68 63 c-37 35 -69 66 -71 70 -1 4 29 35 68 69 l70 63 62 -57 c35 -31 64
-51 66 -46 2 6 -22 34 -54 64 l-57 53 52 50 c29 27 57 51 62 52 5 2 25 -10 45
-28 47 -41 57 -30 14 15 l-34 35 44 46 c25 25 58 55 73 66 l28 20 28 -26 c15
-14 34 -26 42 -26 8 0 -1 15 -23 35 l-37 34 62 55 62 56 45 -45 c25 -25 52
-45 60 -45 8 0 -9 24 -38 53 l-53 53 71 63 70 63 48 -40 c26 -22 58 -52 72
-66 l24 -27 -44 -39 c-56 -48 -34 -53 24 -5 l43 35 28 -30 c16 -17 36 -30 44
-30 10 0 1 14 -23 38 l-37 39 70 62 71 63 59 -51 c92 -79 90 -75 40 -121 -25
-22 -38 -39 -29 -40 8 0 29 14 47 32 40 38 46 36 136 -47 36 -33 83 -71 104
-83 l38 -24 -29 31 c-16 17 -28 32 -25 34 2 2 34 31 70 65 l66 62 61 -56 61
-55 -70 -67 c-39 -36 -66 -68 -59 -70 6 -2 40 23 75 57 35 34 66 61 70 61 3 0
37 -29 75 -65 l69 -65 -72 -64 -71 -64 -65 56 -66 57 42 -51 c23 -28 49 -56
57 -63 8 -7 12 -21 8 -34 -5 -19 -3 -20 10 -9 13 10 26 2 84 -52 l69 -64 -54
-56 c-30 -31 -52 -58 -49 -61 3 -3 30 17 61 45 30 27 59 50 63 50 5 -1 39 -29
76 -64 l68 -62 -69 -62 c-38 -34 -73 -62 -76 -62 -4 0 -32 23 -63 50 -31 28
-58 46 -60 40 -2 -5 21 -33 51 -60 l55 -50 -56 -54 c-31 -30 -53 -58 -49 -62
4 -4 32 16 61 45 62 61 56 62 144 -21 l61 -56 -72 -65 -72 -64 -63 55 c-35 31
-62 48 -62 40 0 -8 25 -36 56 -62 l55 -48 -55 -50 c-76 -68 -75 -84 11 -163
l66 -61 -66 -58 c-52 -45 -67 -65 -67 -85 0 -30 46 -81 73 -81 12 0 5 11 -23
36 -22 20 -40 40 -40 44 0 4 32 36 71 71 l70 62 60 -59 60 -59 -53 -47 c-65
-59 -43 -64 25 -7 l49 42 42 -42 c23 -22 48 -41 56 -41 8 0 -8 23 -35 50 l-50
50 63 56 c34 31 62 60 62 65 0 5 -29 37 -65 70 l-64 60 64 61 c86 80 86 94 -1
172 l-66 59 66 59 c88 79 88 94 0 173 l-66 60 66 59 c89 78 89 94 0 173 l-66
60 66 58 c88 78 88 93 1 173 l-65 60 65 60 c84 77 85 90 2 170 l-64 61 31 30
c22 22 26 31 15 31 -9 0 -24 -9 -34 -20 -10 -11 -23 -20 -30 -20 -7 0 -20 9
-30 20 -10 11 -25 20 -33 20 -11 0 -7 -9 13 -30 l29 -30 -35 -36 c-19 -20 -51
-49 -71 -65 l-37 -30 -58 56 -58 55 45 40 c52 46 33 56 -20 10 -19 -16 -40
-29 -46 -30 -5 0 -23 14 -39 30 -16 17 -36 30 -44 30 -10 0 0 -16 27 -41 l44
-41 -69 -64 c-37 -35 -70 -63 -73 -63 -3 0 -36 29 -75 64 l-70 65 45 40 c53
46 36 54 -21 9 -41 -33 -56 -31 -93 10 -11 12 -26 21 -35 21 -10 -1 1 -16 29
-41 l45 -40 -70 -64 c-38 -35 -72 -64 -75 -64 -3 0 -36 29 -75 64 l-70 64 45
40 c53 47 36 55 -20 10 l-39 -32 -39 32 c-58 45 -75 38 -22 -9 l45 -40 -70
-65 c-38 -35 -72 -64 -75 -64 -3 0 -36 28 -74 63 l-68 63 43 41 c28 26 38 42
28 42 -8 0 -28 -14 -44 -30 -16 -17 -34 -30 -39 -30 -6 1 -27 14 -46 30 -19
17 -41 30 -50 30 -8 0 4 -17 30 -39 l45 -39 -25 -27 c-14 -15 -46 -45 -72 -67
l-48 -40 -69 64 -69 63 41 43 c26 26 35 42 26 42 -8 0 -28 -13 -44 -30 -36
-37 -44 -37 -80 0 -16 17 -37 30 -46 30 -13 0 -7 -11 24 -40 l42 -40 -58 -56
-57 -56 -48 40 c-26 22 -58 52 -71 66 l-25 26 29 30 c20 21 24 30 13 30 -8 0
-23 -9 -33 -20 -10 -11 -23 -20 -30 -20 -7 0 -20 9 -30 20 -10 11 -25 20 -34
20 -11 0 -6 -10 17 -30 l33 -30 -67 -63 c-36 -34 -69 -63 -73 -64 -3 -1 -37
26 -76 61 l-70 64 29 31 c34 36 16 43 -21 9 l-23 -22 -30 22 c-44 33 -60 26
-20 -9 l35 -30 -59 -52 c-33 -29 -63 -52 -66 -52 -4 0 -38 29 -75 64 l-69 64
23 18 c21 17 22 19 4 19 -10 0 -24 -5 -31 -12 -9 -9 -15 -9 -24 0 -7 7 -19 12
-27 12 -11 0 -10 -5 5 -21 19 -21 19 -21 -51 -84 -79 -72 -68 -73 -160 14
l-55 52 22 19 c17 15 19 19 7 20 -8 0 -21 -6 -27 -12 -10 -10 -17 -10 -32 0
-31 19 -45 14 -24 -9 19 -21 19 -22 -50 -85 l-69 -63 -36 29 c-20 15 -51 44
-70 64 -34 35 -34 36 -16 56 14 16 15 20 4 20 -8 0 -21 -6 -27 -12 -10 -10
-17 -10 -32 0 -31 19 -45 14 -25 -8 18 -20 18 -21 -16 -56 -19 -20 -50 -49
-70 -64 l-36 -29 -69 63 c-69 63 -69 64 -50 85 21 23 7 28 -24 9 -15 -10 -22
-10 -32 0 -6 6 -19 12 -27 12 -12 -1 -10 -5 6 -19 l23 -19 -71 -66 -70 -67
-59 52 c-33 29 -60 55 -60 60 0 4 15 19 33 33 21 17 27 26 16 26 -9 0 -28 -9
-43 -21 l-26 -20 -26 20 c-41 32 -58 25 -22 -9 l33 -30 -70 -65 c-38 -35 -72
-64 -75 -64 -3 0 -36 29 -75 65 l-70 65 35 29 c40 34 23 41 -22 9 l-29 -21
-23 21 c-34 32 -55 26 -23 -7 15 -15 27 -31 27 -34 0 -3 -32 -34 -70 -68 l-71
-63 -58 56 -58 55 41 41 c26 26 35 41 25 41 -8 0 -28 -13 -44 -30 -16 -16 -34
-30 -40 -30 -6 0 -24 14 -40 30 -16 17 -36 30 -44 30 -10 0 0 -16 26 -42 l41
-43 -70 -63 -69 -63 -37 30 c-20 16 -53 46 -72 66 l-35 36 42 40 c31 28 37 39
24 39 -9 0 -30 -13 -46 -30 -16 -16 -34 -30 -40 -30 -6 0 -24 14 -40 30 -16
17 -36 30 -44 30 -9 0 0 -16 26 -42 l41 -43 -69 -63 -69 -64 -48 40 c-26 22
-58 52 -72 67 l-25 27 45 39 c26 22 38 39 30 39 -9 0 -31 -13 -50 -30 -19 -16
-40 -29 -46 -30 -5 0 -23 14 -39 30 -16 17 -36 30 -44 30 -10 0 0 -16 27 -41
l44 -41 -69 -64 c-37 -35 -70 -63 -73 -63 -3 0 -36 29 -75 64 l-70 65 45 40
c53 46 36 54 -21 9 -41 -33 -56 -31 -93 10 -11 12 -26 21 -35 21 -10 -1 1 -16
29 -41 l45 -40 -70 -64 c-38 -35 -72 -64 -75 -64 -3 0 -36 29 -75 64 l-70 64
45 40 c53 47 36 55 -20 10 l-39 -32 -39 32 c-57 45 -76 38 -22 -8 51 -44 51
-43 -31 -111 l-47 -40 -70 64 -70 64 31 31 c22 22 27 31 16 31 -9 0 -24 -9
-34 -20 -10 -11 -23 -20 -30 -20 -7 0 -20 9 -30 20 -10 11 -25 20 -33 20 -11
0 -7 -9 13 -30z m2608 -94 l69 -62 -70 -62 c-38 -34 -73 -62 -77 -62 -8 0
-128 109 -133 121 -4 10 119 128 133 128 6 0 41 -28 78 -63z m955 0 l66 -64
-64 -58 c-35 -33 -69 -59 -76 -59 -7 0 -43 27 -80 59 l-67 60 69 63 c38 34 73
63 78 63 4 0 38 -29 74 -64z m-1572 -19 l68 -64 -64 -61 c-36 -34 -70 -61 -76
-62 -6 0 -42 28 -79 62 l-68 62 69 63 c38 34 72 63 75 63 4 0 37 -29 75 -63z
m308 11 l59 -52 -69 -63 c-38 -35 -74 -63 -79 -63 -6 0 -34 24 -64 54 l-52 53
68 61 c37 34 70 62 73 62 3 0 32 -24 64 -52z m1558 -10 l70 -62 -55 -53 c-30
-29 -59 -53 -65 -53 -5 0 -40 28 -77 62 l-68 62 58 53 c32 29 60 53 63 53 2 0
36 -28 74 -62z m320 0 l70 -63 -73 -67 -73 -67 -65 61 c-36 34 -67 64 -69 68
-3 7 122 130 133 130 3 0 38 -28 77 -62z m1867 -1 c34 -32 61 -61 61 -65 0 -3
-30 -34 -67 -68 l-68 -61 -73 65 -73 65 68 63 c37 35 73 62 80 61 6 -1 39 -28
72 -60z m-5624 -21 l70 -63 -55 -50 c-30 -28 -59 -51 -63 -53 -5 -1 -40 27
-79 61 l-70 63 58 52 c33 29 61 53 64 54 3 0 36 -29 75 -64z m318 1 l69 -62
-65 -62 c-36 -35 -71 -63 -79 -63 -7 1 -42 28 -78 62 l-64 61 69 64 c39 34 72
63 75 63 3 0 36 -29 73 -63z m947 8 l53 -54 -69 -64 -69 -65 -59 52 c-33 29
-59 55 -58 59 3 11 131 127 140 127 4 0 32 -25 62 -55z m2787 -10 l68 -64 -60
-54 -60 -54 -67 61 c-37 34 -68 64 -68 68 0 9 103 108 112 108 4 0 38 -29 75
-65z m956 2 l69 -62 -65 -62 c-36 -35 -71 -63 -79 -63 -7 1 -42 28 -78 62
l-64 61 69 64 c39 34 72 63 75 63 3 0 36 -29 73 -63z m310 9 l57 -53 -72 -65
-73 -65 -60 54 -60 55 69 64 c37 35 71 64 75 64 3 -1 32 -25 64 -54z m-3276
-129 l51 -49 -65 -62 c-36 -33 -68 -62 -72 -64 -4 -1 -38 27 -76 63 l-70 64
70 65 c80 73 65 75 162 -17z m1320 -51 c-2 -5 -33 -36 -70 -69 l-66 -59 -70
63 c-39 35 -70 66 -70 69 0 3 32 33 71 67 l70 63 69 -62 c38 -34 68 -67 66
-72z m-3437 -16 c0 -12 -131 -131 -139 -128 -5 2 -38 31 -75 64 l-67 62 73 65
72 65 68 -60 c37 -34 68 -64 68 -68z m1539 14 c13 -12 12 -17 -10 -40 -13 -14
-45 -44 -71 -66 l-48 -40 -71 64 -71 63 72 68 72 68 57 -52 c31 -29 62 -58 70
-65z m310 6 c0 -3 -31 -33 -69 -68 l-70 -64 -60 52 c-33 29 -60 55 -59 58 0 4
32 35 71 70 l70 63 58 -53 c32 -29 58 -55 59 -58z m1853 13 l38 -39 -60 -52
-60 -53 -70 62 c-39 35 -70 65 -70 66 0 2 26 28 57 57 l58 54 35 -28 c19 -16
52 -46 72 -67z m330 -10 l26 -28 -69 -63 -69 -64 -27 20 c-16 11 -48 41 -73
67 l-45 46 70 63 70 64 45 -38 c25 -21 57 -51 72 -67z m1539 9 l36 -34 -69
-65 c-38 -35 -73 -63 -77 -61 -5 2 -38 31 -74 65 l-66 62 72 65 72 65 35 -32
c19 -18 51 -47 71 -65z m-5338 11 c34 -32 64 -59 66 -60 6 -4 -38 -50 -81 -85
l-38 -30 -70 64 -70 63 54 53 c30 28 59 52 66 52 6 0 39 -26 73 -57z m1709
-105 l70 -63 -72 -67 -73 -67 -68 62 c-38 34 -69 65 -69 69 0 7 130 128 137
128 2 0 36 -28 75 -62z m1591 1 c37 -34 67 -64 65 -68 -2 -3 -33 -34 -70 -69
l-66 -63 -72 67 -72 68 69 63 c37 34 70 62 73 63 3 0 36 -28 73 -61z m-3439
-20 c36 -33 66 -64 66 -68 0 -5 -31 -35 -69 -69 l-68 -61 -72 65 -71 66 67 64
c38 35 71 63 74 64 3 0 36 -27 73 -61z m1540 8 l59 -53 -73 -67 -73 -68 -59
58 -58 58 67 62 c38 34 70 62 73 62 3 0 31 -23 64 -52z m2199 -13 l66 -61 -53
-52 c-30 -29 -61 -51 -69 -49 -8 1 -43 30 -78 63 l-62 59 58 53 c32 30 62 52
65 51 4 -2 37 -30 73 -64z m1862 5 c36 -34 65 -65 65 -69 0 -4 -31 -34 -68
-68 l-68 -60 -72 64 -71 65 67 64 c37 35 70 64 74 65 4 0 37 -28 73 -61z
m-3872 -166 l28 -30 -71 -62 -70 -63 -38 30 c-20 17 -52 46 -71 66 l-34 35 69
64 69 65 45 -38 c25 -21 57 -51 73 -67z m1877 33 c69 -66 70 -58 -21 -137
l-59 -51 -71 63 -71 63 66 64 c36 35 72 62 80 60 8 -2 42 -29 76 -62z m1900
-79 c0 -8 -116 -119 -131 -125 -5 -2 -40 25 -79 60 l-70 63 72 66 73 66 67
-60 c38 -34 68 -65 68 -70z m-5664 66 c35 -32 64 -61 64 -65 0 -8 -117 -121
-131 -126 -5 -2 -41 25 -80 60 l-70 63 68 62 c37 34 72 63 76 63 5 0 37 -26
73 -57z m5804 -188 l25 -27 -69 -63 -70 -64 -35 29 c-20 15 -52 45 -71 65
l-35 37 68 64 68 65 47 -40 c26 -21 58 -51 72 -66z m-3956 -88 l69 -63 -67
-59 c-37 -33 -72 -62 -77 -63 -5 -2 -39 25 -75 60 l-66 64 63 62 c35 34 69 62
74 62 6 0 41 -28 79 -63z m1912 1 l67 -63 -68 -62 c-37 -35 -70 -63 -74 -63
-4 0 -38 28 -75 63 l-69 62 68 63 c37 34 72 62 76 62 5 0 38 -28 75 -62z
m-3762 -15 c34 -32 61 -63 61 -69 0 -11 -118 -124 -130 -124 -4 0 -38 28 -76
62 l-70 62 68 63 c37 34 72 62 77 63 5 0 37 -26 70 -57z m5826 -213 c0 -18
-133 -129 -145 -122 -7 4 -40 33 -74 64 l-61 57 72 65 71 65 69 -60 c37 -34
68 -65 68 -69z m-3978 -62 l70 -63 -73 -67 -72 -68 -66 63 c-36 34 -67 65 -69
68 -3 6 125 129 134 129 3 0 37 -28 76 -62z m1913 -2 c39 -35 68 -65 65 -67
-3 -3 -33 -30 -67 -62 -34 -31 -66 -57 -72 -57 -6 0 -40 28 -77 62 l-67 63 69
62 c38 35 71 63 74 63 3 0 37 -29 75 -64z m-3759 -18 c35 -33 64 -64 64 -68 0
-3 -31 -33 -68 -67 l-68 -61 -72 65 -72 65 67 64 c38 35 72 63 76 64 5 0 38
-28 73 -62z m5824 -208 c0 -9 -126 -130 -135 -130 -3 0 -38 28 -76 63 l-70 62
73 66 72 67 68 -61 c37 -34 68 -64 68 -67z m-3977 -64 l68 -63 -71 -67 -71
-67 -69 63 c-39 35 -70 66 -70 70 0 7 132 128 140 128 3 -1 36 -29 73 -64z
m1911 0 l70 -63 -70 -65 c-39 -38 -74 -63 -81 -60 -6 4 -39 34 -73 66 l-62 60
68 62 c38 35 71 63 74 63 3 0 36 -28 74 -63z m-3735 -40 c15 -16 21 -30 15
-34 -5 -5 -37 -34 -70 -66 l-62 -57 -60 56 -60 56 69 65 70 65 37 -29 c20 -17
48 -42 61 -56z m5601 -1 l45 -47 -59 -53 -58 -54 -69 61 c-38 34 -69 65 -69
69 0 4 25 30 56 58 l56 51 26 -19 c15 -11 47 -40 72 -66z m132 -120 l58 -54
-62 -55 -62 -55 -57 52 c-31 29 -57 56 -58 61 -1 12 100 105 114 105 6 0 36
-24 67 -54z"/>
<path d="M5948 1585 c-59 -15 -142 -53 -190 -87 l-28 -19 0 -580 0 -579 195 0
195 0 0 383 c0 424 4 457 63 556 64 107 200 207 327 241 l44 12 -31 19 c-80
51 -138 62 -333 65 -136 2 -200 -1 -242 -11z"/>
<path d="M7873 1585 c-158 -34 -308 -153 -376 -295 -19 -41 -40 -99 -46 -128
-7 -33 -11 -195 -11 -427 l0 -375 49 0 50 0 3 398 c3 386 4 399 26 453 50 125
156 231 280 281 52 21 73 23 232 23 158 0 180 -2 231 -23 125 -50 231 -156
281 -280 22 -56 23 -66 26 -454 l3 -398 55 0 54 0 0 363 c0 408 -6 453 -66
576 -69 139 -217 254 -371 286 -87 19 -335 18 -420 0z"/>
<path d="M9785 1586 c-28 -7 -80 -26 -115 -42 l-65 -31 60 -17 c143 -42 269
-136 334 -249 55 -96 61 -150 61 -554 l0 -363 190 0 190 0 0 570 0 569 -22 22
c-31 30 -152 84 -216 98 -70 15 -353 13 -417 -3z"/>
<path d="M13600 119 c-608 -3 -1385 -7 -1727 -8 l-623 -1 0 -22 0 -21 1213 6
c666 4 1805 10 2530 14 1270 6 1317 7 1317 25 0 17 -29 18 -802 16 -442 -1
-1300 -5 -1908 -9z"/>
<path d="M1860 59 c-608 -3 -1273 -7 -1477 -8 -370 -1 -373 -1 -373 -22 l0
-20 1173 7 c644 3 1743 9 2442 13 1198 6 1270 7 1273 24 3 16 -47 17 -965 15
-532 -1 -1465 -5 -2073 -9z"/>
</g>
</svg>
